<?xml version="1.0" standalone="no"?>
<!DOCTYPE svg PUBLIC "-//W3C//DTD SVG 20010904//EN"
 "http://www.w3.org/TR/2001/REC-SVG-20010904/DTD/svg10.dtd">
<svg version="1.0" xmlns="http://www.w3.org/2000/svg"
 width="1254.000000pt" height="1254.000000pt" viewBox="0 0 1254.000000 1254.000000"
 preserveAspectRatio="xMidYMid meet">
<metadata>
Created by potrace 1.14, written by Peter Selinger 2001-2017
</metadata>
<g transform="translate(0.000000,1254.000000) scale(0.100000,-0.100000)"
fill="#000000" stroke="none">
<path d="M5895 12328 c-298 -17 -656 -69 -969 -139 -1223 -276 -2338 -932
-3179 -1872 -997 -1114 -1547 -2552 -1547 -4047 0 -771 150 -1549 438 -2266
427 -1065 1168 -2005 2110 -2677 1234 -880 2748 -1265 4252 -1081 252 31 383
53 614 105 1223 276 2338 932 3179 1872 997 1114 1547 2552 1547 4047 0 771
-150 1549 -438 2266 -427 1065 -1168 2005 -2110 2677 -1132 807 -2494 1197
-3897 1115z m2615 -1930 c182 -46 336 -131 467 -259 79 -77 167 -193 195 -257
11 -26 29 -58 38 -72 10 -14 20 -43 23 -65 2 -22 12 -60 21 -84 9 -24 21 -76
26 -115 5 -41 10 -859 10 -1942 0 -1608 -2 -1899 -16 -2065 -8 -106 -17 -195
-19 -199 -2 -3 -9 -44 -15 -90 -18 -137 -34 -209 -105 -475 -15 -55 -31 -107
-36 -117 -5 -9 -22 -54 -38 -100 -16 -46 -37 -102 -45 -126 -26 -70 -171 -362
-214 -432 -23 -36 -62 -102 -88 -147 -26 -46 -61 -100 -78 -120 -18 -21 -57
-74 -88 -118 -146 -209 -352 -426 -598 -631 -95 -79 -318 -240 -389 -281 -25
-15 -60 -37 -77 -50 -47 -35 -466 -243 -489 -243 -12 0 -25 -4 -30 -9 -6 -5
-62 -28 -125 -51 -307 -112 -680 -189 -1025 -211 -96 -6 -555 -9 -1150 -7
l-990 3 -76 31 c-158 64 -260 171 -327 341 -29 74 -32 93 -32 185 0 125 26
208 96 310 72 105 137 156 275 216 l64 27 1075 6 c1225 6 1138 1 1565 105 138
33 426 160 610 269 333 196 645 508 863 861 168 271 304 638 342 924 7 47 17
114 23 150 8 46 12 615 14 1902 l4 1838 -2238 3 c-2071 2 -2241 4 -2283 19
-25 9 -61 23 -80 30 -19 7 -53 26 -75 42 -22 17 -55 40 -72 53 -43 31 -106
126 -145 216 -27 63 -31 87 -35 187 -5 111 -4 119 27 197 79 206 227 328 455
377 11 2 1069 3 2350 2 l2330 -1 105 -27z"/>
</g>
</svg>
