<?xml version="1.0" standalone="no"?>
<!DOCTYPE svg PUBLIC "-//W3C//DTD SVG 20010904//EN"
 "http://www.w3.org/TR/2001/REC-SVG-20010904/DTD/svg10.dtd">
<svg version="1.0" xmlns="http://www.w3.org/2000/svg"
 width="657.000000pt" height="657.000000pt" viewBox="0 0 657.000000 657.000000"
 preserveAspectRatio="xMidYMid meet">
<metadata>
Created by potrace 1.14, written by Peter Selinger 2001-2017
</metadata>
<g transform="translate(0.000000,657.000000) scale(0.100000,-0.100000)"
fill="#000000" stroke="none">
<path d="M3015 6483 c-488 -44 -1001 -216 -1420 -476 -354 -220 -734 -586
-964 -931 -228 -340 -368 -659 -466 -1059 -122 -494 -118 -1052 10 -1537 14
-52 31 -120 37 -150 7 -30 15 -57 19 -60 10 -8 29 -71 29 -96 0 -13 4 -24 8
-24 9 0 78 -170 74 -183 -1 -4 4 -15 13 -23 8 -9 18 -27 22 -42 3 -15 12 -33
20 -40 7 -7 16 -25 20 -40 3 -15 12 -33 20 -40 7 -7 16 -25 19 -39 4 -14 15
-34 25 -44 11 -11 19 -28 19 -39 0 -10 6 -23 13 -27 18 -12 67 -90 67 -108 0
-8 4 -15 10 -15 13 0 70 -85 70 -104 0 -9 4 -16 8 -16 13 0 112 -128 112 -145
0 -8 7 -15 15 -15 9 0 19 -8 22 -17 9 -24 403 -418 426 -426 9 -4 17 -13 17
-22 0 -8 8 -15 19 -15 10 0 21 -9 24 -20 3 -11 13 -20 24 -20 10 0 31 -11 47
-25 16 -14 33 -25 38 -25 4 0 8 -7 8 -15 0 -8 9 -15 20 -15 11 0 20 -6 20 -14
0 -8 16 -20 36 -26 19 -7 38 -18 41 -26 3 -8 14 -14 24 -14 10 0 19 -7 19 -15
0 -8 16 -19 39 -25 21 -5 42 -17 45 -25 3 -8 15 -15 26 -15 11 0 28 -8 39 -19
10 -10 30 -21 45 -25 14 -3 26 -11 26 -17 0 -6 5 -7 10 -4 6 3 10 2 10 -3 0
-5 13 -12 29 -15 16 -3 36 -13 44 -22 9 -8 25 -15 36 -15 12 0 29 -8 40 -19
10 -10 34 -21 54 -25 19 -4 38 -13 41 -21 3 -8 17 -15 32 -15 14 0 37 -9 51
-20 14 -11 41 -20 59 -20 18 0 40 -7 48 -16 9 -8 39 -19 67 -23 28 -5 54 -13
58 -19 4 -7 40 -16 81 -22 41 -6 77 -15 81 -21 3 -5 32 -12 65 -15 32 -3 75
-12 94 -20 19 -8 82 -19 140 -24 58 -5 137 -14 175 -20 96 -16 637 -9 643 8 2
8 25 12 62 12 79 0 211 20 204 31 -3 5 13 9 35 9 46 0 141 20 141 30 0 4 24
10 54 13 30 3 70 12 88 20 18 8 54 20 81 27 26 7 50 17 53 21 3 5 13 9 22 9
19 0 174 60 182 70 3 4 17 10 32 13 15 4 33 14 42 22 8 8 24 15 35 15 12 0 30
9 41 20 11 11 29 20 40 20 11 0 28 8 39 19 10 10 30 21 44 25 14 3 32 12 39
19 8 6 39 25 71 42 31 16 57 35 57 42 0 7 7 13 16 13 23 0 103 52 104 68 0 6
7 12 16 12 18 0 104 59 104 72 0 4 7 8 16 8 9 0 18 9 21 20 3 11 12 20 21 20
22 0 116 83 272 240 159 160 230 241 230 264 0 9 7 16 16 16 9 0 18 9 21 20 3
11 9 20 14 20 12 0 69 86 69 104 0 9 6 16 13 16 12 1 67 80 67 98 0 5 13 24
29 41 15 16 34 45 42 63 7 18 19 39 26 46 7 7 16 25 19 39 4 14 15 34 25 44
11 11 19 28 19 39 0 11 9 29 20 40 11 11 20 29 20 41 0 11 7 27 15 36 9 8 19
28 22 44 3 16 9 29 12 29 4 0 22 42 40 93 19 50 39 106 47 122 7 17 16 44 19
60 4 17 16 54 26 83 10 29 19 68 19 87 0 19 4 35 8 35 10 0 32 89 32 129 0 15
4 31 8 37 11 12 31 133 34 204 1 30 6 58 12 62 8 5 11 111 11 325 0 327 -3
401 -17 409 -4 3 -8 35 -8 72 0 37 -7 92 -16 122 -8 30 -19 86 -24 124 -5 38
-14 72 -20 76 -7 4 -15 37 -20 74 -4 37 -14 73 -21 82 -6 8 -16 38 -20 66 -5
28 -13 55 -20 58 -6 4 -15 29 -20 55 -5 27 -16 56 -24 65 -8 9 -15 29 -15 44
0 14 -7 29 -15 32 -8 3 -17 22 -21 42 -4 21 -10 39 -13 42 -13 11 -31 51 -31
70 0 11 -9 29 -20 40 -11 11 -20 25 -20 31 0 6 -7 17 -15 25 -8 9 -18 27 -21
41 -4 14 -15 34 -25 44 -11 11 -19 27 -19 37 0 10 -9 25 -20 35 -11 9 -20 26
-20 37 0 11 -9 25 -20 32 -11 7 -20 20 -20 28 0 8 -8 20 -19 27 -10 6 -21 25
-24 42 -4 18 -13 31 -22 31 -8 0 -15 6 -15 14 0 7 -18 33 -40 57 -22 24 -40
52 -40 62 0 11 -9 21 -20 24 -11 3 -20 14 -20 24 0 11 -7 19 -15 19 -9 0 -19
8 -22 18 -9 23 -403 417 -425 425 -10 4 -18 13 -18 22 0 8 -7 15 -16 15 -14 0
-76 42 -112 77 -7 7 -18 13 -23 13 -5 0 -9 7 -9 15 0 8 -7 15 -16 15 -18 0
-104 59 -104 72 0 4 -7 8 -15 8 -8 0 -41 17 -72 37 -32 21 -70 43 -85 50 -16
7 -28 16 -28 21 0 5 -13 12 -29 15 -16 3 -35 12 -42 20 -8 7 -26 17 -41 20
-15 4 -33 14 -42 22 -8 8 -24 15 -35 15 -12 0 -30 9 -41 20 -11 11 -26 20 -34
20 -21 0 -170 61 -174 71 -2 5 -13 9 -24 9 -29 0 -98 22 -98 30 0 5 -15 10
-32 12 -18 3 -94 21 -168 41 -148 39 -328 71 -489 87 -95 9 -503 11 -596 3z
m1885 -1328 l0 -475 -1125 0 -1125 0 0 -465 0 -465 455 0 c293 0 455 -4 455
-10 0 -5 -15 -24 -34 -42 -94 -92 -844 -866 -859 -888 -15 -22 -17 -68 -17
-487 l0 -463 1125 0 1125 0 0 -475 0 -475 -1600 0 -1600 0 0 2360 0 2360 1600
0 1600 0 0 -475z m0 -1890 l0 -475 -480 0 c-264 0 -480 3 -480 6 0 8 944 943
953 944 4 0 7 -214 7 -475z"/>
</g>
</svg>
